<?xml version="1.0" encoding="UTF-8"?>
<!DOCTYPE svg PUBLIC "-//W3C//DTD SVG 1.1//EN" "http://www.w3.org/Graphics/SVG/1.1/DTD/svg11.dtd">
<!-- Creator: CorelDRAW Standard 2020 (Versión de evaluación) -->
<svg xmlns="http://www.w3.org/2000/svg" xml:space="preserve" width="106.033mm" height="65.1112mm" version="1.1" style="shape-rendering:geometricPrecision; text-rendering:geometricPrecision; image-rendering:optimizeQuality; fill-rule:evenodd; clip-rule:evenodd"
viewBox="0 0 8341.6 5122.27"
 xmlns:xlink="http://www.w3.org/1999/xlink"
 xmlns:xodm="http://www.corel.com/coreldraw/odm/2003">
 <defs>
  <style type="text/css">
   <![CDATA[
    .str0 {stroke:black;stroke-width:15.73;stroke-miterlimit:22.9256}
    .fil0 {fill:yellow}
    .fil1 {fill:black;fill-rule:nonzero}
   ]]>
  </style>
 </defs>
 <g id="Capa_x0020_1">
  <metadata id="CorelCorpID_0Corel-Layer"/>
  <g id="_429745240">
   <path class="fil0 str0" d="M4170.8 7.87c2299.13,0 4162.94,1143.14 4162.94,2553.27 0,1410.13 -1863.81,2553.27 -4162.94,2553.27 -2299.13,0 -4162.94,-1143.14 -4162.94,-2553.27 0,-1410.13 1863.81,-2553.27 4162.94,-2553.27z"/>
   <path class="fil1" d="M1071.71 3037.44l0 -993.22 131.78 0 0 993.22 -131.78 0zm361.82 0l0 -993.22 135.02 0 521.12 779.59 0 -779.59 126.23 0 0 993.22 -135.02 0 -521.12 -779.59 0 779.59 -126.23 0zm1003.16 0l0 -993.22 342.17 0c77.22,0 136.18,4.62 176.86,14.1 56.88,13.19 105.43,37 145.66,71.21 52.48,44.39 91.56,100.8 117.45,169.7 26.13,68.9 39.08,147.73 39.08,236.28 0,75.37 -8.79,142.19 -26.35,200.45 -17.57,58.25 -40.23,106.58 -67.74,144.73 -27.75,38.15 -57.8,68.2 -90.64,89.94 -32.59,21.96 -72.13,38.61 -118.37,49.94 -46.47,11.33 -99.65,16.87 -159.76,16.87l-358.36 0zm131.79 -116.53l211.77 0c65.43,0 116.76,-6.01 153.98,-18.26 37.23,-12.26 66.81,-29.37 89.01,-51.56 30.98,-31.21 55.25,-73.29 72.6,-126.01 17.34,-52.71 26.12,-116.52 26.12,-191.66 0,-104.03 -17.1,-184.03 -51.09,-239.98 -33.99,-55.95 -75.37,-93.4 -124.16,-112.36 -35.14,-13.64 -91.78,-20.35 -169.93,-20.35l-208.31 0 0 760.18zm872.77 116.53l0 -993.22 717.18 0 0 116.52 -585.4 0 0 305.18 547.94 0 0 116.53 -547.94 0 0 338.47 608.97 0 0 116.53 -740.75 0zm919.7 0l0 -993.22 196.98 0 234.89 703.07c21.74,65.43 37.45,114.44 47.4,147.04 11.33,-36.07 29.13,-89.24 53.17,-159.3l239.06 -690.81 175.94 0 0 993.22 -126.23 0 0 -830.92 -289.92 830.92 -118.37 0 -286.68 -846.18 0 846.18 -126.23 0zm1049.41 0l381 -993.22 144.5 0 404.36 993.22 -149.58 0 -114.9 -301.02 -418.23 0 -107.74 301.02 -139.41 0zm285.75 -407.83l338.48 0 -103.58 -275.36c-31.21,-83.69 -54.79,-152.82 -71.21,-207.38 -13.63,64.74 -31.9,128.32 -54.79,191.2l-108.89 291.54zm1455.85 59.42l131.78 33.29c-27.51,107.97 -76.99,190.04 -148.43,246.68 -71.44,56.64 -158.83,85.08 -262.18,85.08 -106.81,0 -193.74,-21.74 -260.79,-65.43 -67.04,-43.46 -117.91,-106.58 -152.82,-189.12 -34.91,-82.77 -52.48,-171.31 -52.48,-266.11 0,-103.34 19.65,-193.51 59.18,-270.5 39.53,-76.99 95.72,-135.48 168.54,-175.48 72.82,-40 153.05,-59.88 240.45,-59.88 99.41,0 182.88,25.2 250.38,75.83 67.74,50.63 114.9,121.61 141.5,213.16l-129.01 30.52c-22.88,-72.13 -56.41,-124.84 -100.11,-157.67 -43.69,-33.06 -98.72,-49.48 -165.07,-49.48 -76.07,0 -139.87,18.27 -190.97,54.8 -51.1,36.53 -87.16,85.77 -107.74,147.27 -20.81,61.73 -31.21,125.3 -31.21,190.73 0,84.39 12.25,158.14 36.76,221.03 24.51,63.12 62.65,110.04 114.44,141.26 51.79,31.21 107.74,46.7 168.08,46.7 73.52,0 135.48,-21.26 186.34,-63.58 50.87,-42.54 85.31,-105.43 103.35,-189.11z"/>
   <path class="fil1" d="M1689.19 3446.07l0 -167.45 33.91 0 0 167.45 -33.91 0zm66.14 0l0 -167.45 32.82 0 68.91 112.21 0 -112.21 31.33 0 0 167.45 -33.87 0 -67.86 -110.07 0 110.07 -31.34 0zm168.9 0l0 -167.45 32.82 0 68.91 112.21 0 -112.21 31.33 0 0 167.45 -33.87 0 -67.86 -110.07 0 110.07 -31.34 0zm161.88 -82.71c0,-17.07 2.57,-31.41 7.68,-43.03 3.78,-8.54 9.01,-16.21 15.59,-23 6.59,-6.78 13.8,-11.81 21.63,-15.12 10.45,-4.41 22.49,-6.63 36.13,-6.63 24.71,0 44.43,7.68 59.29,23 14.81,15.36 22.22,36.68 22.22,64 0,27.09 -7.36,48.3 -22.06,63.57 -14.7,15.32 -34.38,22.96 -58.97,22.96 -24.91,0 -44.75,-7.6 -59.44,-22.84 -14.7,-15.2 -22.07,-36.17 -22.07,-62.91zm34.85 -1.12c0,18.98 4.41,33.36 13.17,43.18 8.77,9.79 19.92,14.7 33.41,14.7 13.52,0 24.59,-4.87 33.29,-14.58 8.65,-9.75 12.98,-24.32 12.98,-43.77 0,-19.22 -4.21,-33.56 -12.67,-42.99 -8.43,-9.47 -19.61,-14.18 -33.6,-14.18 -13.96,0 -25.22,4.79 -33.76,14.34 -8.54,9.59 -12.82,24.01 -12.82,43.31zm196.91 83.84l-59.91 -167.45 36.64 0 42.53 123.95 40.81 -123.95 36.02 0 -59.56 167.45 -36.53 0zm246.66 0l-36.53 0 -14.46 -38.12 -67.16 0 -13.92 38.12 -35.86 0 65.01 -167.45 35.83 0 67.08 167.45zm-61.98 -66.42l-23.27 -61.98 -22.61 61.98 45.88 0zm187.14 4.68l32.73 10.05c-5.03,18.44 -13.41,32.12 -25.1,41.08 -11.7,8.93 -26.5,13.41 -44.48,13.41 -22.26,0 -40.53,-7.6 -54.88,-22.81 -14.3,-15.2 -21.48,-35.98 -21.48,-62.36 0,-27.87 7.21,-49.55 21.59,-64.98 14.38,-15.43 33.32,-23.15 56.79,-23.15 20.5,0 37.15,6.08 49.93,18.2 7.64,7.17 13.33,17.46 17.15,30.91l-33.44 7.95c-1.99,-8.65 -6.12,-15.51 -12.4,-20.54 -6.31,-5.03 -13.95,-7.52 -22.92,-7.52 -12.44,0 -22.53,4.44 -30.25,13.37 -7.76,8.89 -11.61,23.31 -11.61,43.27 0,21.12 3.82,36.21 11.41,45.17 7.65,9.01 17.54,13.48 29.74,13.48 9,0 16.76,-2.84 23.23,-8.57 6.47,-5.73 11.15,-14.69 13.96,-26.97zm60.61 61.74l0 -167.45 33.91 0 0 167.45 -33.91 0zm59.12 -82.71c0,-17.07 2.57,-31.41 7.68,-43.03 3.78,-8.54 9.01,-16.21 15.59,-23 6.59,-6.78 13.8,-11.81 21.63,-15.12 10.45,-4.41 22.49,-6.63 36.13,-6.63 24.71,0 44.43,7.68 59.29,23 14.81,15.36 22.22,36.68 22.22,64 0,27.09 -7.36,48.3 -22.06,63.57 -14.7,15.32 -34.38,22.96 -58.97,22.96 -24.91,0 -44.75,-7.6 -59.44,-22.84 -14.7,-15.2 -22.07,-36.17 -22.07,-62.91zm34.85 -1.12c0,18.98 4.41,33.36 13.17,43.18 8.77,9.79 19.92,14.7 33.41,14.7 13.52,0 24.59,-4.87 33.29,-14.58 8.65,-9.75 12.98,-24.32 12.98,-43.77 0,-19.22 -4.21,-33.56 -12.67,-42.99 -8.43,-9.47 -19.61,-14.18 -33.6,-14.18 -13.96,0 -25.22,4.79 -33.76,14.34 -8.54,9.59 -12.82,24.01 -12.82,43.31zm26.19 -98.82l15.91 -34.14 35.78 0 -31.57 34.14 -20.12 0zm127.89 182.66l0 -167.45 32.82 0 68.91 112.21 0 -112.21 31.33 0 0 167.45 -33.87 0 -67.86 -110.07 0 110.07 -31.34 0zm233.87 -167.45l61.66 0c13.92,0 24.52,1.05 31.81,3.19 9.79,2.89 18.2,8.03 25.18,15.43 7.02,7.37 12.32,16.41 15.99,27.13 3.62,10.68 5.45,23.89 5.45,39.56 0,13.79 -1.71,25.65 -5.14,35.62 -4.17,12.2 -10.13,22.06 -17.89,29.59 -5.85,5.73 -13.76,10.17 -23.7,13.37 -7.45,2.38 -17.39,3.55 -29.86,3.55l-63.49 0 0 -167.45zm33.91 28.3l0 110.85 25.13 0c9.4,0 16.18,-0.54 20.35,-1.6 5.49,-1.37 10.01,-3.71 13.6,-6.98 3.63,-3.27 6.55,-8.65 8.81,-16.14 2.3,-7.49 3.43,-17.74 3.43,-30.68 0,-12.94 -1.13,-22.84 -3.43,-29.78 -2.27,-6.94 -5.46,-12.32 -9.55,-16.21 -4.09,-3.86 -9.28,-6.51 -15.59,-7.87 -4.68,-1.05 -13.92,-1.6 -27.64,-1.6l-15.12 0zm134.98 139.15l0 -167.45 123.95 0 0 28.3 -90.04 0 0 37.19 83.72 0 0 28.3 -83.72 0 0 45.37 93.31 0 0 28.3 -127.22 0zm147.1 -54.26l32.98 -3.27c1.99,11.03 5.96,19.1 12,24.29 6.04,5.18 14.19,7.76 24.44,7.76 10.83,0 19.02,-2.31 24.51,-6.9 5.5,-4.6 8.27,-9.98 8.27,-16.14 0,-3.97 -1.17,-7.32 -3.47,-10.13 -2.31,-2.77 -6.36,-5.18 -12.12,-7.21 -3.94,-1.41 -12.9,-3.82 -26.94,-7.33 -18.05,-4.52 -30.71,-10.05 -38.01,-16.65 -10.25,-9.24 -15.36,-20.5 -15.36,-33.79 0,-8.54 2.42,-16.57 7.21,-24.01 4.83,-7.45 11.77,-13.1 20.85,-17 9.09,-3.89 20,-5.85 32.86,-5.85 20.93,0 36.72,4.64 47.28,13.96 10.6,9.31 16.14,21.71 16.69,37.27l-33.91 1.16c-1.44,-8.65 -4.52,-14.84 -9.24,-18.63 -4.71,-3.78 -11.81,-5.69 -21.24,-5.69 -9.75,0 -17.39,2.02 -22.88,6.08 -3.54,2.61 -5.33,6.08 -5.33,10.44 0,3.98 1.68,7.37 5.03,10.18 4.25,3.62 14.58,7.36 30.99,11.26 16.41,3.86 28.53,7.91 36.36,12.04 7.87,4.18 14.03,9.83 18.48,17.04 4.44,7.21 6.66,16.1 6.66,26.66 0,9.59 -2.65,18.59 -7.99,26.97 -5.33,8.39 -12.86,14.62 -22.6,18.68 -9.75,4.09 -21.91,6.11 -36.45,6.11 -21.16,0 -37.42,-4.87 -48.76,-14.65 -11.34,-9.75 -18.09,-23.98 -20.31,-42.65zm315.73 54.26l-36.53 0 -14.46 -38.12 -67.16 0 -13.92 38.12 -35.86 0 65.01 -167.45 35.83 0 67.08 167.45zm-61.98 -66.42l-23.27 -61.98 -22.61 61.98 45.88 0zm80.02 66.42l0 -167.45 71.21 0c17.9,0 30.91,1.52 39.02,4.52 8.14,3.01 14.62,8.35 19.49,16.02 4.88,7.72 7.33,16.49 7.33,26.39 0,12.6 -3.67,22.96 -11.03,31.15 -7.37,8.18 -18.36,13.33 -33.02,15.47 7.29,4.25 13.3,8.93 18.01,14.03 4.76,5.11 11.15,14.18 19.18,27.2l20.42 32.66 -40.42 0 -24.25 -36.56c-8.69,-12.98 -14.66,-21.17 -17.89,-24.56 -3.19,-3.35 -6.58,-5.69 -10.17,-6.94 -3.63,-1.24 -9.31,-1.87 -17.11,-1.87l-6.86 0 0 69.93 -33.91 0zm33.91 -96.59l25.02 0c16.21,0 26.31,-0.7 30.36,-2.06 4.02,-1.37 7.21,-3.74 9.47,-7.1 2.31,-3.35 3.43,-7.56 3.43,-12.59 0,-5.66 -1.52,-10.18 -4.52,-13.68 -3.01,-3.47 -7.25,-5.66 -12.71,-6.55 -2.76,-0.39 -10.99,-0.58 -24.67,-0.58l-26.39 0 0 42.56zm134.98 96.59l0 -167.45 71.21 0c17.9,0 30.91,1.52 39.02,4.52 8.14,3.01 14.62,8.35 19.49,16.02 4.88,7.72 7.33,16.49 7.33,26.39 0,12.6 -3.67,22.96 -11.03,31.15 -7.37,8.18 -18.36,13.33 -33.02,15.47 7.29,4.25 13.3,8.93 18.01,14.03 4.76,5.11 11.15,14.18 19.18,27.2l20.42 32.66 -40.42 0 -24.25 -36.56c-8.69,-12.98 -14.66,-21.17 -17.89,-24.56 -3.19,-3.35 -6.58,-5.69 -10.17,-6.94 -3.63,-1.24 -9.31,-1.87 -17.11,-1.87l-6.86 0 0 69.93 -33.91 0zm33.91 -96.59l25.02 0c16.21,0 26.31,-0.7 30.36,-2.06 4.02,-1.37 7.21,-3.74 9.47,-7.1 2.31,-3.35 3.43,-7.56 3.43,-12.59 0,-5.66 -1.52,-10.18 -4.52,-13.68 -3.01,-3.47 -7.25,-5.66 -12.71,-6.55 -2.76,-0.39 -10.99,-0.58 -24.67,-0.58l-26.39 0 0 42.56zm127.96 13.88c0,-17.07 2.57,-31.41 7.68,-43.03 3.78,-8.54 9.01,-16.21 15.59,-23 6.59,-6.78 13.8,-11.81 21.63,-15.12 10.45,-4.41 22.49,-6.63 36.13,-6.63 24.71,0 44.43,7.68 59.29,23 14.81,15.36 22.22,36.68 22.22,64 0,27.09 -7.36,48.3 -22.06,63.57 -14.7,15.32 -34.38,22.96 -58.97,22.96 -24.91,0 -44.75,-7.6 -59.44,-22.84 -14.7,-15.2 -22.07,-36.17 -22.07,-62.91zm34.85 -1.12c0,18.98 4.41,33.36 13.17,43.18 8.77,9.79 19.92,14.7 33.41,14.7 13.52,0 24.59,-4.87 33.29,-14.58 8.65,-9.75 12.98,-24.32 12.98,-43.77 0,-19.22 -4.21,-33.56 -12.67,-42.99 -8.43,-9.47 -19.61,-14.18 -33.6,-14.18 -13.96,0 -25.22,4.79 -33.76,14.34 -8.54,9.59 -12.82,24.01 -12.82,43.31zm155.01 83.84l0 -166.05 33.91 0 0 137.75 83.96 0 0 28.3 -117.87 0zm142.86 0l0 -166.05 33.91 0 0 137.75 83.96 0 0 28.3 -117.87 0zm134.9 -82.71c0,-17.07 2.57,-31.41 7.68,-43.03 3.78,-8.54 9.01,-16.21 15.59,-23 6.59,-6.78 13.8,-11.81 21.63,-15.12 10.45,-4.41 22.49,-6.63 36.13,-6.63 24.71,0 44.43,7.68 59.29,23 14.81,15.36 22.22,36.68 22.22,64 0,27.09 -7.36,48.3 -22.06,63.57 -14.7,15.32 -34.38,22.96 -58.97,22.96 -24.91,0 -44.75,-7.6 -59.44,-22.84 -14.7,-15.2 -22.07,-36.17 -22.07,-62.91zm34.85 -1.12c0,18.98 4.41,33.36 13.17,43.18 8.77,9.79 19.92,14.7 33.41,14.7 13.52,0 24.59,-4.87 33.29,-14.58 8.65,-9.75 12.98,-24.32 12.98,-43.77 0,-19.22 -4.21,-33.56 -12.67,-42.99 -8.43,-9.47 -19.61,-14.18 -33.6,-14.18 -13.96,0 -25.22,4.79 -33.76,14.34 -8.54,9.59 -12.82,24.01 -12.82,43.31zm258.81 83.84l0 -70.47 -61.39 -96.98 39.64 0 39.6 66.3 38.55 -66.3 38.9 0 -61.39 97.21 0 70.24 -33.91 0zm172.32 0l0 -167.45 50.79 0 30.01 114.2 29.66 -114.2 50.91 0 0 167.45 -31.34 0 -0.11 -131.83 -33.02 131.83 -32.58 0 -32.86 -131.83 -0.12 131.83 -31.33 0zm346.12 0l-36.53 0 -14.46 -38.12 -67.16 0 -13.92 38.12 -35.86 0 65.01 -167.45 35.83 0 67.08 167.45zm-61.98 -66.42l-23.27 -61.98 -22.61 61.98 45.88 0zm214.62 45.22c8.26,5.96 17.27,10.68 27.01,14.18l-12.43 24.09c-5.07,-1.52 -10.06,-3.63 -14.93,-6.32 -1.05,-0.54 -8.54,-5.49 -22.45,-14.92 -10.95,4.79 -23.11,7.21 -36.44,7.21 -25.73,0 -45.92,-7.6 -60.5,-22.76 -14.58,-15.2 -21.87,-36.53 -21.87,-64.01 0,-27.4 7.33,-48.72 21.95,-63.92 14.62,-15.25 34.46,-22.85 59.48,-22.85 24.83,0 44.51,7.6 59.05,22.85 14.54,15.2 21.83,36.48 21.83,63.88 0,14.47 -2.03,27.21 -6.08,38.2 -3.04,8.38 -7.91,16.53 -14.62,24.36zm-27.13 -19.02c4.33,-5.14 7.56,-11.3 9.75,-18.56 2.14,-7.25 3.23,-15.55 3.23,-24.95 0,-19.37 -4.25,-33.83 -12.78,-43.42 -8.54,-9.55 -19.68,-14.34 -33.44,-14.34 -13.8,0 -24.99,4.79 -33.52,14.42 -8.57,9.63 -12.86,24.09 -12.86,43.42 0,19.6 4.29,34.3 12.86,44.01 8.57,9.75 19.41,14.62 32.51,14.62 4.91,0 9.51,-0.82 13.84,-2.42 -6.82,-4.48 -13.8,-7.95 -20.86,-10.45l9.47 -19.64c11.07,3.85 21.67,9.59 31.81,17.31zm74.45 -127.22l33.91 0 0 90.74c0,14.42 0.42,23.74 1.24,27.99 1.45,6.86 4.84,12.39 10.21,16.52 5.42,4.18 12.79,6.24 22.15,6.24 9.47,0 16.64,-1.95 21.48,-5.88 4.83,-3.93 7.72,-8.73 8.69,-14.46 0.97,-5.73 1.48,-15.2 1.48,-28.45l0 -92.69 33.91 0 0 88.05c0,20.12 -0.9,34.34 -2.72,42.65 -1.83,8.3 -5.18,15.32 -10.1,21.04 -4.87,5.74 -11.41,10.25 -19.6,13.64 -8.22,3.39 -18.9,5.11 -32.12,5.11 -15.94,0 -28.02,-1.83 -36.24,-5.53 -8.23,-3.71 -14.73,-8.5 -19.53,-14.42 -4.79,-5.92 -7.91,-12.08 -9.43,-18.6 -2.22,-9.59 -3.31,-23.77 -3.31,-42.52l0 -89.42zm167.73 167.45l0 -167.45 33.91 0 0 167.45 -33.91 0zm66.14 0l0 -167.45 32.82 0 68.91 112.21 0 -112.21 31.33 0 0 167.45 -33.87 0 -67.86 -110.07 0 110.07 -31.34 0zm319.74 0l-36.53 0 -14.46 -38.12 -67.16 0 -13.92 38.12 -35.86 0 65.01 -167.45 35.83 0 67.08 167.45zm-61.98 -66.42l-23.27 -61.98 -22.61 61.98 45.88 0zm80.02 66.42l0 -167.45 71.21 0c17.9,0 30.91,1.52 39.02,4.52 8.14,3.01 14.62,8.35 19.49,16.02 4.88,7.72 7.33,16.49 7.33,26.39 0,12.6 -3.67,22.96 -11.03,31.15 -7.37,8.18 -18.36,13.33 -33.02,15.47 7.29,4.25 13.3,8.93 18.01,14.03 4.76,5.11 11.15,14.18 19.18,27.2l20.42 32.66 -40.42 0 -24.25 -36.56c-8.69,-12.98 -14.66,-21.17 -17.89,-24.56 -3.19,-3.35 -6.58,-5.69 -10.17,-6.94 -3.63,-1.24 -9.31,-1.87 -17.11,-1.87l-6.86 0 0 69.93 -33.91 0zm33.91 -96.59l25.02 0c16.21,0 26.31,-0.7 30.36,-2.06 4.02,-1.37 7.21,-3.74 9.47,-7.1 2.31,-3.35 3.43,-7.56 3.43,-12.59 0,-5.66 -1.52,-10.18 -4.52,-13.68 -3.01,-3.47 -7.25,-5.66 -12.71,-6.55 -2.76,-0.39 -10.99,-0.58 -24.67,-0.58l-26.39 0 0 42.56zm133.82 96.59l0 -167.45 33.91 0 0 167.45 -33.91 0zm216.99 0l-36.53 0 -14.46 -38.12 -67.16 0 -13.92 38.12 -35.86 0 65.01 -167.45 35.83 0 67.08 167.45zm-61.98 -66.42l-23.27 -61.98 -22.61 61.98 45.88 0z"/>
  </g>
 </g>
</svg>
